<svg xmlns="http://www.w3.org/2000/svg" xmlns:xlink="http://www.w3.org/1999/xlink" width="500" zoomAndPan="magnify" viewBox="0 0 375 374.999991" height="500" preserveAspectRatio="xMidYMid meet" version="1.0"><defs><g/><clipPath id="cd32b7bd22"><path d="M 127.53125 145 L 218 145 L 218 228 L 127.53125 228 Z M 127.53125 145 " clip-rule="nonzero"/></clipPath><clipPath id="6b5376f64d"><path d="M 127.53125 111 L 204 111 L 204 223 L 127.53125 223 Z M 127.53125 111 " clip-rule="nonzero"/></clipPath><clipPath id="25afae6ad6"><path d="M 106.371094 80.96875 L 268.617188 80.96875 L 268.617188 242.957031 L 106.371094 242.957031 Z M 106.371094 80.96875 " clip-rule="nonzero"/></clipPath></defs><rect x="-37.5" width="450" fill="#ffffff" y="-37.499999" height="449.999989" fill-opacity="1"/><rect x="-37.5" width="450" fill="#ffffff" y="-37.499999" height="449.999989" fill-opacity="1"/><g clip-path="url(#cd32b7bd22)"><path fill="#ee4a9d" d="M 127.800781 145.082031 C 127.53125 151.703125 128.628906 159.335938 131.511719 168.0625 C 140.566406 195.5 162.449219 214.085938 191.070312 227.386719 C 193.714844 225.785156 214.648438 211.445312 217.257812 209.660156 C 203.15625 175.339844 162.984375 229.496094 127.800781 145.082031 Z M 127.800781 145.082031 " fill-opacity="1" fill-rule="evenodd"/></g><path fill="#ee4a9d" d="M 193.238281 117.378906 C 191.902344 118.507812 190.597656 119.785156 189.320312 121.179688 C 188.84375 121.6875 187.835938 122.042969 187.953125 122.753906 C 192.050781 148.644531 237.746094 156.898438 217.199219 173.171875 C 195.703125 190.183594 207.847656 193.035156 221.417969 204.851562 C 234.183594 190.214844 248.464844 167.46875 238.875 149.832031 L 238.28125 148.734375 L 240.476562 147.546875 L 241.070312 148.644531 C 248.167969 161.679688 244.191406 174.804688 238.042969 187.007812 C 238.609375 186.292969 239.171875 185.550781 239.707031 184.839844 C 246.179688 176.082031 250.78125 167.113281 252.5625 158.503906 C 259.777344 123.199219 220.257812 94.429688 193.238281 117.378906 Z M 220.019531 140.808594 C 225.515625 141.074219 229.640625 141.789062 232.609375 138.730469 C 228.898438 140.332031 224.890625 140.6875 220.496094 139.144531 L 220.40625 139.113281 L 220.4375 139.085938 C 218.535156 136.355469 218.03125 133.5625 218.417969 130.710938 C 216.875 133.355469 218.148438 136.027344 219.398438 139.738281 C 213.339844 138.433594 213.28125 130.117188 217.289062 126.019531 C 217.675781 128.929688 223.941406 132.761719 221.652344 137.453125 C 227.207031 131.484375 235.164062 139.054688 239.378906 138.460938 C 235.371094 145.4375 224.089844 148.496094 220.019531 140.808594 Z M 220.019531 140.808594 " fill-opacity="1" fill-rule="evenodd"/><g clip-path="url(#6b5376f64d)"><path fill="#eb7db5" d="M 187.953125 122.636719 C 187.804688 122.488281 187.300781 121.953125 187.242188 121.894531 C 165.65625 100.070312 129.996094 112.660156 127.679688 145.734375 L 127.769531 146.003906 L 127.769531 145.351562 C 137.804688 169.101562 149.058594 182.226562 160.101562 189.351562 C 159.628906 182.078125 159.125 175.875 159.449219 174.359375 C 159.894531 172.101562 157.9375 171.300781 156.214844 169.429688 C 154.015625 167.054688 152.117188 164.234375 151.226562 161.234375 C 149.621094 155.710938 152.324219 149.003906 157.015625 145.765625 C 163.011719 141.609375 176.316406 144.460938 179.550781 150.753906 C 181.09375 153.753906 180.738281 158.027344 179.3125 161.234375 C 180.382812 162.453125 185.28125 164.113281 180.738281 166.371094 L 180.710938 167.648438 C 179.996094 171.777344 179.136719 169.667969 178.453125 171.003906 C 178.273438 172.101562 179.046875 174.003906 176.640625 174.417969 C 175.039062 174.714844 174.117188 173.855469 172.542969 175.636719 C 171.921875 176.792969 172.515625 178.425781 173.910156 180.058594 C 179.609375 186.738281 183.023438 181.070312 189.882812 193.183594 L 197.78125 183.980469 C 202.859375 179.40625 208.769531 166.492188 194.8125 167.855469 C 191.636719 168.152344 187.984375 169.132812 187.390625 166.164062 C 187.183594 165.066406 187.863281 163.964844 187.566406 163.3125 C 186.972656 161.859375 185.519531 162.925781 186.765625 160.613281 C 185.015625 159.453125 186.261719 159.75 186.46875 158.027344 C 186.5 157.761719 186.5 157.851562 186.46875 157.613281 C 186.261719 155.980469 183.589844 156.601562 183.5 155.265625 C 183.914062 153.871094 185.816406 151.585938 186.738281 150.277344 C 188.101562 148.289062 187.507812 148.792969 187.0625 145.558594 C 186.855469 144.132812 186.738281 142.914062 186.765625 141.726562 C 187.035156 137.480469 187.449219 134.304688 187.863281 132.078125 C 187.894531 131.898438 188.816406 130.238281 189.558594 128.871094 C 187.804688 126.082031 188.84375 127.59375 188.101562 123.792969 C 188.042969 123.46875 187.984375 123.109375 187.925781 122.753906 C 187.953125 122.695312 187.953125 122.664062 187.953125 122.636719 Z M 198.433594 222.695312 Z M 198.433594 222.695312 " fill-opacity="1" fill-rule="evenodd"/></g><path fill="#eb7db5" d="M 265.820312 147.800781 L 265.824219 147.808594 L 266.140625 149.792969 L 266.136719 149.789062 L 265.820312 147.800781 " fill-opacity="1" fill-rule="nonzero"/><path fill="#eb7db5" d="M 226.703125 94.867188 L 228.3125 95.820312 C 228.148438 95.726562 227.964844 95.621094 227.722656 95.484375 C 227.375 95.289062 227 95.066406 226.703125 94.867188 " fill-opacity="1" fill-rule="nonzero"/><path fill="#eb7db5" d="M 262.085938 130.027344 C 262.136719 130.121094 262.214844 130.257812 262.28125 130.378906 C 262.300781 130.433594 262.320312 130.488281 262.351562 130.574219 C 262.308594 130.496094 262.253906 130.398438 262.199219 130.300781 C 262.160156 130.203125 262.085938 130.027344 262.085938 130.027344 " fill-opacity="1" fill-rule="nonzero"/><path fill="#eb7db5" d="M 264.464844 136.472656 C 264.648438 137.355469 265.335938 138.828125 265.582031 140.207031 C 265.25 138.582031 264.539062 137.042969 264.0625 135.464844 C 264.089844 135.429688 264.300781 136.03125 264.464844 136.472656 " fill-opacity="1" fill-rule="nonzero"/><path fill="#eb7db5" d="M 263.34375 138.621094 L 263.464844 138.949219 C 263.570312 139.242188 263.644531 139.46875 263.707031 139.636719 L 262.804688 137.238281 C 262.851562 137.347656 262.902344 137.476562 262.960938 137.621094 C 263.113281 138.019531 263.246094 138.371094 263.34375 138.621094 " fill-opacity="1" fill-rule="nonzero"/><path fill="#eb7db5" d="M 260.957031 132.316406 L 260.957031 132.308594 L 261.03125 132.488281 L 260.957031 132.316406 " fill-opacity="1" fill-rule="nonzero"/><path fill="#eb7db5" d="M 112.441406 190.464844 L 112.332031 190.121094 C 112.429688 190.382812 112.546875 190.703125 112.695312 191.113281 C 112.605469 190.878906 112.519531 190.664062 112.441406 190.464844 " fill-opacity="1" fill-rule="nonzero"/><path fill="#eb7db5" d="M 265.523438 180.804688 C 265.507812 180.867188 265.492188 180.929688 265.460938 181.050781 C 265.492188 180.917969 265.515625 180.835938 265.535156 180.75 L 265.523438 180.804688 " fill-opacity="1" fill-rule="nonzero"/><path fill="#eb7db5" d="M 263.878906 187.320312 C 263.355469 188.757812 263.355469 188.753906 263.070312 189.535156 C 263.34375 188.792969 263.597656 188.09375 263.878906 187.320312 " fill-opacity="1" fill-rule="nonzero"/><path fill="#eb7db5" d="M 267.164062 169.648438 C 267.140625 170.347656 267.128906 170.660156 267.125 170.746094 C 267.105469 170.941406 267.121094 171.296875 267.066406 171.574219 L 267.0625 171.554688 C 267.121094 171.085938 267.113281 170.609375 267.164062 169.648438 " fill-opacity="1" fill-rule="nonzero"/><path fill="#eb7db5" d="M 267.898438 152.0625 C 267.925781 152.242188 267.949219 152.417969 267.964844 152.546875 C 267.972656 152.589844 267.984375 152.691406 267.996094 152.769531 C 267.980469 152.667969 267.957031 152.515625 267.953125 152.480469 C 267.945312 152.414062 267.917969 152.222656 267.898438 152.0625 " fill-opacity="1" fill-rule="nonzero"/><path fill="#eb7db5" d="M 227.261719 232.8125 L 226.476562 233.277344 L 226.441406 233.296875 L 227.269531 232.804688 L 227.261719 232.8125 " fill-opacity="1" fill-rule="nonzero"/><path fill="#eb7db5" d="M 267.363281 161.179688 C 267.378906 162.128906 267.5 162.957031 267.425781 163.792969 C 267.429688 162.21875 267.34375 162.09375 267.363281 161.179688 " fill-opacity="1" fill-rule="nonzero"/><path fill="#eb7db5" d="M 267.269531 167.359375 C 267.269531 167.417969 267.265625 167.511719 267.265625 167.542969 C 267.261719 167.617188 267.253906 167.71875 267.246094 167.808594 L 267.257812 167.429688 C 267.261719 167.402344 267.269531 167.359375 267.269531 167.359375 " fill-opacity="1" fill-rule="nonzero"/><path fill="#eb7db5" d="M 267.363281 162.433594 L 267.339844 162.132812 C 267.335938 162.105469 267.328125 161.898438 267.324219 161.765625 C 267.335938 161.914062 267.347656 162.09375 267.355469 162.183594 C 267.355469 162.222656 267.359375 162.347656 267.363281 162.433594 " fill-opacity="1" fill-rule="nonzero"/><path fill="#eb7db5" d="M 267.417969 163.945312 L 267.410156 164.234375 L 267.40625 164.230469 Z M 267.417969 163.945312 " fill-opacity="1" fill-rule="nonzero"/><path fill="#eb7db5" d="M 267.339844 165.753906 C 267.339844 165.800781 267.335938 165.886719 267.335938 165.886719 C 267.335938 165.886719 267.332031 165.984375 267.328125 166.039062 C 267.328125 165.992188 267.332031 165.90625 267.332031 165.90625 C 267.332031 165.90625 267.335938 165.808594 267.339844 165.753906 " fill-opacity="1" fill-rule="nonzero"/><path fill="#eb7db5" d="M 108.265625 162.96875 L 108.265625 162.828125 L 108.277344 162.832031 Z M 108.265625 162.96875 " fill-opacity="1" fill-rule="nonzero"/><path fill="#eb7db5" d="M 110.847656 143.570312 C 110.894531 143.402344 110.992188 143.054688 111.128906 142.550781 C 111.074219 143.027344 111.035156 143.367188 111 143.632812 C 110.996094 143.875 110.992188 144.0625 110.984375 144.359375 C 110.867188 144.6875 110.792969 144.898438 110.792969 144.898438 C 110.679688 144.882812 110.691406 144.449219 110.847656 143.570312 " fill-opacity="1" fill-rule="nonzero"/><path fill="#eb7db5" d="M 113.40625 135.230469 C 113.488281 135.378906 113.355469 135.933594 113.179688 136.632812 C 112.980469 137.019531 112.8125 137.351562 112.648438 137.679688 C 112.78125 137.21875 112.90625 136.773438 113.046875 136.292969 C 113.148438 135.988281 113.273438 135.625 113.40625 135.230469 " fill-opacity="1" fill-rule="nonzero"/><path fill="#eb7db5" d="M 229.894531 93.425781 C 230.445312 93.761719 230.902344 94.039062 231.5 94.402344 C 230.5625 93.917969 230.5625 93.921875 229.894531 93.425781 " fill-opacity="1" fill-rule="nonzero"/><path fill="#eb7db5" d="M 255.429688 122.453125 C 255.417969 122.4375 255.253906 122.199219 255.148438 122.042969 C 254.957031 121.738281 254.808594 121.480469 254.851562 121.511719 C 254.871094 121.539062 255.027344 121.765625 255.199219 122.011719 C 255.292969 122.195312 255.386719 122.371094 255.429688 122.453125 " fill-opacity="1" fill-rule="nonzero"/><path fill="#eb7db5" d="M 266.554688 174.734375 C 266.488281 175.1875 266.4375 175.546875 266.386719 175.898438 C 266.4375 175.558594 266.488281 175.1875 266.554688 174.734375 " fill-opacity="1" fill-rule="nonzero"/><path fill="#eb7db5" d="M 117.199219 126.859375 C 117.144531 127.019531 117.085938 127.179688 117.039062 127.316406 C 116.945312 127.488281 116.878906 127.605469 116.816406 127.71875 C 116.855469 127.585938 116.878906 127.460938 116.945312 127.3125 C 117.007812 127.171875 117.113281 127.011719 117.199219 126.859375 " fill-opacity="1" fill-rule="nonzero"/><path fill="#eb7db5" d="M 121.011719 120.054688 C 120.960938 120.152344 120.910156 120.261719 120.867188 120.355469 C 120.761719 120.511719 120.664062 120.667969 120.492188 120.933594 C 120.644531 120.65625 120.71875 120.519531 120.789062 120.390625 L 121.011719 120.054688 " fill-opacity="1" fill-rule="nonzero"/><path fill="#eb7db5" d="M 210.246094 239.8125 C 210.492188 239.75 210.699219 239.699219 210.902344 239.648438 C 210.9375 239.636719 211.042969 239.613281 211 239.625 C 210.765625 239.683594 210.648438 239.714844 210.589844 239.726562 C 210.570312 239.730469 210.410156 239.769531 210.246094 239.8125 " fill-opacity="1" fill-rule="nonzero"/><path fill="#eb7db5" d="M 260.722656 132.125 L 260.613281 131.933594 L 260.476562 131.632812 C 260.535156 131.746094 260.609375 131.886719 260.648438 131.960938 C 260.65625 131.980469 260.695312 132.066406 260.722656 132.125 " fill-opacity="1" fill-rule="nonzero"/><path fill="#eb7db5" d="M 124.347656 115.222656 L 124.238281 115.390625 C 124.207031 115.421875 124.148438 115.480469 124.148438 115.480469 C 124.148438 115.480469 124.175781 115.421875 124.1875 115.386719 L 124.347656 115.222656 " fill-opacity="1" fill-rule="nonzero"/><path fill="#eb7db5" d="M 259.578125 129.976562 C 259.574219 129.957031 259.550781 129.90625 259.566406 129.925781 C 259.609375 130.011719 259.625 130.042969 259.671875 130.132812 C 259.632812 130.070312 259.605469 130.023438 259.578125 129.976562 " fill-opacity="1" fill-rule="nonzero"/><path fill="#eb7db5" d="M 112.625 138.332031 L 112.609375 138.332031 L 112.664062 138.203125 Z M 112.625 138.332031 " fill-opacity="1" fill-rule="nonzero"/><path fill="#eb7db5" d="M 122.523438 117.722656 L 122.453125 117.839844 L 122.355469 117.953125 L 122.421875 117.839844 L 122.523438 117.722656 " fill-opacity="1" fill-rule="nonzero"/><path fill="#eb7db5" d="M 225.359375 233.839844 L 225.53125 233.761719 L 225.355469 233.839844 Z M 225.359375 233.839844 " fill-opacity="1" fill-rule="nonzero"/><path fill="#eb7db5" d="M 112.648438 137.679688 L 112.636719 137.726562 L 112.640625 137.691406 Z M 112.648438 137.679688 " fill-opacity="1" fill-rule="nonzero"/><g clip-path="url(#25afae6ad6)"><path fill="#eb7db5" d="M 200.953125 241.820312 C 201.007812 241.8125 201.125 241.796875 201.316406 241.765625 C 201.476562 241.742188 201.160156 241.789062 200.964844 241.820312 C 200.9375 241.824219 200.753906 241.851562 200.636719 241.871094 C 200.75 241.851562 200.921875 241.824219 200.953125 241.820312 Z M 217.941406 237.085938 C 218.042969 237.046875 218.085938 237.035156 218.140625 237.011719 L 217.972656 237.074219 C 217.796875 237.140625 217.644531 237.195312 217.4375 237.269531 C 217.609375 237.207031 217.792969 237.140625 217.941406 237.085938 Z M 224.292969 234.230469 C 224.378906 234.1875 224.429688 234.164062 224.492188 234.136719 C 224.421875 234.171875 224.335938 234.210938 224.289062 234.234375 C 224.261719 234.246094 224.183594 234.28125 224.128906 234.308594 C 224.1875 234.28125 224.265625 234.242188 224.292969 234.230469 Z M 232.390625 229.570312 C 232.632812 229.4375 232.847656 229.265625 233.066406 229.105469 L 233.070312 229.101562 C 232.84375 229.265625 232.625 229.441406 232.378906 229.578125 Z M 234.621094 227.953125 L 235.109375 227.589844 C 235.144531 227.566406 235.222656 227.507812 235.285156 227.460938 C 235.210938 227.515625 235.097656 227.601562 235.078125 227.613281 C 234.914062 227.734375 234.773438 227.839844 234.621094 227.953125 Z M 237.625 225.730469 C 237.648438 225.714844 237.710938 225.667969 237.757812 225.628906 C 237.757812 225.628906 237.734375 225.648438 237.71875 225.660156 C 237.691406 225.679688 237.632812 225.722656 237.582031 225.761719 C 237.582031 225.761719 237.609375 225.742188 237.625 225.730469 Z M 245.4375 218.726562 C 244.507812 219.761719 244.394531 219.84375 242.957031 221.125 C 243.8125 220.367188 244.675781 219.617188 245.4375 218.726562 Z M 250.761719 212.699219 L 250.660156 212.832031 L 250.660156 212.835938 Z M 254.136719 208.261719 L 254.144531 208.246094 C 254.105469 208.300781 254.058594 208.359375 254.03125 208.398438 C 254.03125 208.398438 253.980469 208.46875 253.949219 208.503906 Z M 259.824219 197.488281 L 260.21875 196.667969 L 260.21875 196.65625 L 259.804688 197.523438 Z M 263.878906 187.320312 C 263.597656 188.09375 263.34375 188.792969 263.070312 189.535156 C 263.355469 188.753906 263.355469 188.757812 263.878906 187.320312 Z M 265.523438 180.804688 L 265.535156 180.75 C 265.515625 180.835938 265.492188 180.917969 265.460938 181.050781 C 265.492188 180.929688 265.507812 180.867188 265.523438 180.804688 Z M 267.125 170.746094 C 267.128906 170.660156 267.140625 170.347656 267.164062 169.648438 C 267.113281 170.609375 267.121094 171.085938 267.0625 171.554688 L 267.066406 171.574219 C 267.121094 171.296875 267.105469 170.941406 267.125 170.746094 Z M 267.265625 167.542969 C 267.265625 167.511719 267.269531 167.417969 267.269531 167.359375 C 267.269531 167.359375 267.261719 167.402344 267.257812 167.429688 L 267.246094 167.808594 C 267.253906 167.71875 267.261719 167.617188 267.265625 167.542969 Z M 267.335938 165.886719 C 267.335938 165.886719 267.339844 165.800781 267.339844 165.753906 C 267.335938 165.808594 267.332031 165.90625 267.332031 165.90625 C 267.332031 165.90625 267.328125 165.992188 267.328125 166.039062 C 267.332031 165.984375 267.335938 165.886719 267.335938 165.886719 Z M 267.417969 163.945312 L 267.40625 164.230469 L 267.410156 164.234375 Z M 267.363281 161.179688 C 267.34375 162.09375 267.429688 162.21875 267.425781 163.792969 C 267.5 162.957031 267.378906 162.128906 267.363281 161.179688 Z M 267.339844 162.132812 L 267.363281 162.433594 C 267.359375 162.347656 267.355469 162.222656 267.355469 162.183594 C 267.347656 162.09375 267.335938 161.914062 267.324219 161.765625 C 267.328125 161.898438 267.335938 162.105469 267.339844 162.132812 Z M 267.964844 152.546875 C 267.949219 152.417969 267.925781 152.242188 267.898438 152.0625 C 267.917969 152.222656 267.945312 152.414062 267.953125 152.480469 C 267.957031 152.515625 267.980469 152.667969 267.996094 152.769531 C 267.984375 152.691406 267.972656 152.589844 267.964844 152.546875 Z M 265.824219 147.808594 L 265.820312 147.800781 L 266.136719 149.789062 L 266.140625 149.792969 Z M 264.464844 136.472656 C 264.300781 136.03125 264.089844 135.429688 264.0625 135.464844 C 264.539062 137.042969 265.25 138.582031 265.582031 140.207031 C 265.335938 138.828125 264.648438 137.355469 264.464844 136.472656 Z M 263.707031 139.636719 C 263.644531 139.46875 263.570312 139.242188 263.464844 138.949219 L 263.34375 138.621094 C 263.246094 138.371094 263.113281 138.019531 262.960938 137.621094 C 262.902344 137.476562 262.851562 137.347656 262.804688 137.238281 Z M 260.957031 132.308594 L 260.957031 132.316406 L 261.03125 132.488281 Z M 262.28125 130.378906 C 262.214844 130.257812 262.136719 130.121094 262.085938 130.027344 C 262.085938 130.027344 262.160156 130.203125 262.199219 130.300781 C 262.253906 130.398438 262.308594 130.496094 262.351562 130.574219 C 262.320312 130.488281 262.300781 130.433594 262.28125 130.378906 Z M 226.703125 94.867188 C 227 95.066406 227.375 95.289062 227.722656 95.484375 C 227.964844 95.621094 228.148438 95.726562 228.3125 95.820312 Z M 223.3125 93.128906 L 224.101562 93.496094 Z M 211.234375 84.636719 L 211.097656 84.605469 L 211.269531 84.65625 Z M 182.496094 81.296875 L 182.53125 81.304688 L 182.660156 81.292969 Z M 170.03125 83.039062 L 169.996094 83.0625 C 170.085938 83.046875 170.105469 83.042969 170.15625 83.03125 L 170.1875 83.007812 C 170.101562 83.027344 170.082031 83.03125 170.03125 83.039062 Z M 123.78125 209.109375 L 123.703125 208.996094 L 123.695312 208.996094 Z M 142.988281 228.847656 C 143.160156 228.972656 143.34375 229.109375 143.542969 229.257812 C 143.195312 228.996094 142.929688 228.792969 142.710938 228.628906 Z M 155.875 236.304688 C 156.753906 236.769531 157.738281 237.097656 158.804688 237.476562 C 156.984375 236.90625 155.300781 236.015625 153.554688 235.210938 C 154.378906 235.597656 155.136719 235.957031 155.875 236.304688 Z M 164.851562 239.566406 C 164.011719 239.382812 163.230469 239.011719 162.417969 238.746094 C 163.207031 239.011719 163.988281 239.375 164.851562 239.566406 Z M 196.566406 242.484375 C 197.777344 242.300781 199.007812 242.113281 200.105469 241.941406 C 202.109375 241.621094 204.191406 241.398438 206.085938 240.820312 C 207.160156 240.542969 208.226562 240.269531 209.324219 239.988281 C 210.085938 239.789062 210.808594 239.605469 211.628906 239.394531 C 211.628906 239.394531 211.882812 239.308594 211.992188 239.269531 C 212.523438 239.074219 212.800781 238.972656 213.136719 238.851562 C 213.597656 238.679688 213.53125 238.707031 213.484375 238.71875 C 212.722656 238.976562 211.816406 239.386719 211.214844 239.5 C 210.445312 239.695312 208.992188 240.070312 207.746094 240.390625 C 207.660156 240.414062 207.617188 240.425781 207.585938 240.433594 C 207.613281 240.425781 207.796875 240.378906 207.914062 240.347656 C 208.179688 240.28125 208.40625 240.222656 208.980469 240.074219 C 209.25 240.003906 209.710938 239.886719 210.179688 239.765625 L 211.613281 239.394531 C 212.160156 239.203125 212.039062 239.246094 212.269531 239.164062 C 213.332031 238.773438 214.320312 238.414062 215.492188 237.984375 C 216.253906 237.707031 216.84375 237.488281 217.390625 237.289062 L 217.402344 237.285156 C 218.328125 236.957031 219.28125 236.609375 220.355469 236.046875 C 221.300781 235.589844 221.484375 235.503906 221.902344 235.300781 L 224.773438 233.914062 C 225.5 233.605469 226.605469 232.992188 227.335938 232.507812 C 227.425781 232.457031 227.429688 232.453125 227.472656 232.425781 C 227.25 232.5625 226.238281 233.183594 226.070312 233.285156 C 227.648438 232.324219 227.941406 232.144531 230.691406 230.472656 C 231.21875 230.148438 231.441406 230.015625 231.738281 229.832031 C 233.609375 228.667969 235.257812 227.261719 236.855469 226.121094 C 237.160156 225.894531 237.414062 225.699219 237.726562 225.464844 C 239.230469 224.417969 240.71875 222.835938 242.402344 221.371094 C 244.265625 219.804688 245.863281 217.917969 247.46875 216.152344 C 247.71875 215.875 247.734375 215.855469 247.960938 215.605469 C 250.488281 212.90625 250.195312 212.835938 252.632812 209.707031 C 252.933594 209.304688 253.023438 209.183594 253.207031 208.9375 C 254.425781 207.40625 254.878906 206.339844 255.949219 204.664062 C 256.0625 204.472656 256.230469 204.195312 256.300781 204.074219 C 256.660156 203.476562 257.03125 202.859375 257.464844 202.140625 C 258.476562 200.53125 259.167969 198.734375 260.019531 197.03125 C 260.183594 196.691406 260.433594 196.167969 260.632812 195.746094 C 262.167969 192.480469 262.609375 190.558594 263.539062 188.203125 C 263.636719 187.925781 263.859375 187.308594 263.992188 186.9375 C 264.023438 186.816406 264.03125 186.773438 264.046875 186.714844 C 264.167969 186.226562 264.25 185.886719 264.390625 185.3125 C 264.609375 184.445312 264.835938 183.558594 265.097656 182.53125 C 265.03125 182.753906 264.984375 182.921875 264.921875 183.132812 C 265.460938 180.929688 265.992188 179.046875 266.195312 177.359375 C 266.445312 175.648438 266.710938 173.789062 266.976562 171.964844 C 266.976562 171.964844 266.789062 173.15625 266.851562 172.613281 C 266.949219 171.957031 267.070312 171.25 267.074219 170.488281 C 267.105469 169.902344 267.167969 168.726562 267.226562 167.613281 C 267.265625 166.695312 267.300781 165.851562 267.335938 164.972656 C 267.394531 163.839844 267.378906 163.664062 267.371094 163.382812 C 267.324219 162.53125 267.277344 161.726562 267.222656 160.738281 C 267.21875 160.464844 267.214844 160.148438 267.210938 159.960938 C 267.109375 158.28125 267.023438 156.921875 266.941406 155.589844 C 266.898438 154.789062 266.710938 154.054688 266.648438 153.386719 C 266.613281 153.160156 266.539062 152.671875 266.480469 152.292969 C 266.394531 151.761719 266.382812 151.683594 266.257812 150.890625 C 266.066406 149.65625 265.898438 148.417969 265.648438 147.105469 C 265.535156 146.664062 265.40625 146.175781 265.292969 145.730469 C 265.113281 145.03125 265.25 145.472656 265.269531 145.484375 C 265.148438 145.007812 265.019531 144.503906 264.964844 144.398438 C 264.90625 144.289062 264.777344 143.832031 264.617188 143.242188 C 264.316406 142.097656 263.988281 140.871094 263.675781 139.6875 C 263.535156 139.3125 263.421875 139.015625 263.246094 138.539062 C 263.089844 138.140625 262.894531 137.648438 262.78125 137.355469 C 263.167969 138.464844 263.175781 138.488281 263.542969 139.417969 C 263.753906 139.953125 263.847656 140.453125 264 140.996094 C 264.078125 141.320312 264.125 141.511719 264.066406 141.351562 C 264.023438 141.203125 263.960938 140.980469 263.941406 140.917969 C 263.648438 139.5625 263.074219 138.308594 262.59375 137.023438 C 262.355469 136.386719 262.105469 135.707031 261.875 135.082031 C 261.972656 135.296875 262.039062 135.441406 262.128906 135.640625 C 261.984375 135.238281 261.828125 134.820312 261.773438 134.671875 C 261.367188 133.6875 261.097656 132.660156 260.582031 131.730469 C 259.453125 129.519531 258.558594 127.484375 257.152344 124.957031 C 255.738281 122.777344 254.5 120.476562 252.972656 118.410156 C 250.777344 115.617188 249.109375 113.109375 246.8125 110.839844 C 245.15625 109.058594 243.542969 107.238281 241.652344 105.699219 C 239.820312 104.105469 238.082031 102.40625 236.058594 101.042969 L 235.46875 100.613281 C 233.566406 99.234375 231.710938 97.804688 229.644531 96.671875 C 228.363281 95.902344 227.011719 95.097656 225.964844 94.582031 C 225.796875 94.476562 225.648438 94.382812 225.492188 94.28125 L 225.449219 94.253906 L 224.367188 93.703125 C 222.964844 93.042969 221.894531 92.539062 220.660156 91.957031 C 219.21875 91.226562 217.707031 90.652344 215.726562 89.9375 C 216.917969 90.351562 217.582031 90.582031 218.289062 90.828125 C 218.289062 90.828125 218.332031 90.84375 218.378906 90.855469 C 218.210938 90.796875 218.027344 90.726562 217.789062 90.640625 C 217.339844 90.484375 216.832031 90.316406 216.347656 90.148438 C 215.128906 89.726562 213.914062 89.308594 212.84375 88.9375 C 212.003906 88.640625 211.3125 88.355469 210.285156 88.140625 C 210.722656 88.277344 210.941406 88.347656 211.269531 88.453125 C 209.785156 88.117188 208.351562 87.796875 207.015625 87.496094 C 206.785156 87.46875 206.535156 87.441406 206.375 87.421875 C 206.292969 87.417969 205.820312 87.3125 205.5625 87.242188 C 205.070312 87.113281 205.027344 87.066406 205.222656 87.074219 L 205.253906 87.074219 C 203.523438 86.550781 201.726562 86.46875 199.976562 86.195312 C 200.082031 86.210938 200.203125 86.234375 200.351562 86.261719 C 199.832031 86.273438 199.40625 86.21875 197.953125 85.929688 C 196.539062 85.691406 194.996094 85.621094 193.515625 85.613281 C 190.742188 85.578125 188.039062 85.328125 185.378906 85.476562 C 184.59375 85.484375 183.539062 85.53125 182.660156 85.59375 C 180.722656 85.660156 178.789062 85.949219 176.875 86.320312 C 174.96875 86.699219 173.035156 86.863281 171.238281 87.449219 C 169.457031 87.984375 167.71875 88.453125 165.949219 88.871094 C 164.71875 89.101562 163.671875 89.613281 162.507812 90.046875 C 161.414062 90.488281 160.140625 90.996094 159.117188 91.335938 C 157.496094 91.792969 156.203125 92.585938 154.75 93.316406 C 154.160156 93.609375 153.476562 93.949219 152.832031 94.269531 C 150.832031 95.140625 149.074219 96.425781 147.257812 97.488281 C 144.496094 99.023438 142.222656 101.152344 139.597656 102.953125 C 138.394531 103.875 137.335938 104.953125 136.179688 105.9375 C 134.941406 107.132812 133.527344 108.203125 132.484375 109.539062 C 131.472656 110.675781 130.476562 111.792969 129.449219 112.945312 C 125.09375 118.097656 121.128906 123.695312 118.265625 129.816406 C 117.660156 131.097656 116.953125 132.332031 116.433594 133.648438 L 114.929688 137.609375 C 113.800781 140.214844 113.234375 142.992188 112.449219 145.714844 C 111.933594 147.335938 111.699219 149.011719 111.417969 150.6875 C 111.15625 152.363281 110.800781 154.039062 110.605469 155.742188 C 110.445312 158.046875 110.277344 160.421875 110.109375 162.847656 C 110.089844 164.839844 110.207031 166.910156 110.25 169.042969 C 110.210938 170.945312 110.53125 172.988281 110.777344 174.886719 C 110.890625 175.746094 110.980469 176.453125 111.085938 177.230469 L 111.023438 176.6875 C 111.078125 176.71875 111.171875 177.304688 111.210938 177.640625 C 111.265625 178.613281 111.613281 179.910156 111.699219 180.585938 L 111.582031 180.226562 L 112.8125 185.496094 C 112.917969 185.917969 112.992188 186.347656 113.128906 186.757812 C 113.109375 186.652344 113.054688 186.292969 113.066406 186.191406 C 113.347656 187.03125 113.480469 187.242188 113.722656 188.136719 C 113.886719 188.710938 114.03125 189.21875 114.175781 189.734375 C 114.128906 189.632812 114.089844 189.554688 114.058594 189.484375 C 114.714844 191.257812 115.183594 193.132812 116.015625 194.875 C 116.015625 194.875 116.007812 194.824219 115.988281 194.761719 C 115.871094 194.394531 116.085938 194.792969 116.433594 195.46875 C 116.617188 195.976562 116.777344 196.402344 116.929688 196.816406 C 116.957031 196.875 117.042969 197.0625 117.101562 197.191406 C 117.300781 197.558594 116.917969 196.636719 117.222656 197.214844 C 117.855469 198.628906 117.910156 198.910156 118.078125 199.402344 L 118.164062 199.59375 C 118.398438 200.066406 118.53125 200.335938 118.808594 200.902344 C 119.515625 202.15625 119.949219 202.835938 120.242188 203.21875 C 120.523438 203.726562 120.75 204.132812 121 204.589844 C 121.265625 205.042969 121.558594 205.550781 121.839844 206.03125 C 121.917969 206.167969 122.011719 206.332031 122.0625 206.425781 C 122.367188 207.046875 122.769531 207.65625 123.28125 208.3125 C 123.691406 208.882812 124.105469 209.457031 124.523438 210.042969 C 124.820312 210.453125 125.152344 210.902344 125.457031 211.324219 C 125.40625 211.214844 125.15625 210.867188 124.839844 210.429688 C 124.609375 210.109375 124.542969 209.996094 124.695312 210.1875 C 124.800781 210.324219 124.980469 210.566406 125.28125 210.96875 C 124.886719 210.417969 124.664062 210.101562 124.429688 209.777344 C 124.230469 209.5 123.941406 209.113281 123.921875 209.035156 C 124.382812 209.675781 124.851562 210.324219 125.296875 210.941406 C 125.648438 211.457031 125.957031 211.90625 126.285156 212.378906 C 127.3125 213.828125 127.640625 214.046875 128.511719 215.132812 C 128.851562 215.53125 129.117188 215.839844 129.511719 216.292969 L 130.300781 217.199219 C 130.925781 217.914062 131.253906 218.308594 131.367188 218.476562 C 131.46875 218.617188 131.578125 218.773438 131.691406 218.929688 C 132.199219 219.527344 132.730469 219.945312 133.121094 220.347656 C 134.65625 221.789062 136.207031 223.238281 137.503906 224.457031 C 142.855469 228.667969 148.023438 232.417969 154.117188 235.164062 C 155.441406 235.769531 156.675781 236.515625 157.847656 236.90625 C 158.894531 237.296875 160.164062 237.773438 161.484375 238.265625 C 162.96875 238.8125 164.441406 239.421875 165.988281 239.757812 C 167.28125 240.097656 168.566406 240.433594 169.890625 240.777344 C 169.09375 240.570312 169.113281 240.578125 168.675781 240.464844 C 167.03125 240.011719 165.390625 239.660156 163.847656 239.152344 C 162.339844 238.597656 160.875 238.058594 159.402344 237.515625 C 158.820312 237.300781 158.109375 237.039062 157.457031 236.800781 C 157.019531 236.664062 156.59375 236.429688 155.988281 236.144531 C 156.460938 236.363281 156.722656 236.546875 157.335938 236.769531 C 154.921875 235.675781 152.902344 234.636719 150.96875 233.710938 C 149.042969 232.761719 147.332031 231.527344 145.394531 230.402344 C 145.464844 230.445312 145.503906 230.472656 145.539062 230.496094 C 147.765625 231.820312 149.8125 233.289062 152.292969 234.367188 C 152.664062 234.546875 153.046875 234.734375 153.421875 234.914062 C 155.46875 235.945312 157.519531 236.941406 159.710938 237.660156 C 161.890625 238.410156 164.015625 239.390625 166.292969 239.867188 C 168.230469 240.363281 170.179688 240.863281 172.105469 241.355469 C 174.175781 241.671875 176.230469 241.988281 178.277344 242.300781 C 179.082031 242.414062 179.855469 242.582031 180.609375 242.582031 C 182.6875 242.6875 184.75 242.792969 186.8125 242.898438 C 187.125 242.914062 187.398438 242.925781 188.011719 242.957031 C 186.726562 242.890625 185.925781 242.851562 185.066406 242.808594 C 184.222656 242.765625 183.355469 242.722656 182.542969 242.683594 C 180.265625 242.660156 178.023438 242.28125 175.777344 241.925781 C 173.523438 241.617188 171.277344 241.261719 169.09375 240.613281 L 167.761719 240.269531 L 167.742188 240.265625 C 168.617188 240.492188 169.496094 240.71875 170.472656 240.96875 C 169.667969 240.761719 168.902344 240.566406 167.996094 240.339844 C 167.082031 240.105469 166.144531 239.867188 165.21875 239.628906 C 168.722656 240.519531 172.277344 241.558594 176.007812 241.964844 C 176.238281 242 176.507812 242.042969 176.820312 242.089844 C 177.121094 242.136719 177.488281 242.191406 178.015625 242.269531 C 176.710938 242.074219 175.714844 241.925781 174.625 241.761719 L 174.269531 241.707031 C 174.789062 241.785156 175.285156 241.859375 176.140625 241.992188 C 174.820312 241.792969 173.949219 241.660156 173.050781 241.527344 C 171.546875 241.371094 170.246094 240.878906 168.96875 240.605469 C 168.648438 240.527344 168.210938 240.414062 167.632812 240.269531 C 168.558594 240.503906 169.332031 240.703125 170.027344 240.878906 C 170.789062 241.039062 171.4375 241.308594 172.617188 241.46875 C 169.824219 240.902344 167.601562 240.242188 165.355469 239.707031 C 163.210938 239.164062 161.328125 238.320312 159.582031 237.757812 C 159.875 237.863281 160.175781 237.972656 160.488281 238.082031 C 159.925781 237.882812 159.671875 237.792969 159.410156 237.699219 C 157.472656 237.085938 155.699219 236.273438 153.964844 235.417969 C 153.441406 235.175781 152.898438 234.917969 152.398438 234.683594 C 151.855469 234.429688 151.339844 234.191406 150.734375 233.910156 C 150.289062 233.691406 149.863281 233.496094 149.4375 233.210938 L 147.605469 232.117188 C 147.707031 232.1875 147.792969 232.238281 147.878906 232.296875 C 147.332031 231.976562 146.816406 231.675781 146.21875 231.324219 C 145.980469 231.1875 145.789062 231.078125 145.558594 230.941406 C 144.25 230.214844 142.847656 229.382812 141.425781 228.277344 C 140.015625 227.261719 138.667969 226.296875 137.449219 225.421875 C 137.117188 225.214844 136.617188 224.769531 136.195312 224.398438 C 133.863281 222.261719 131.367188 220.394531 129.46875 218.191406 C 128.738281 217.421875 128.007812 216.652344 127.3125 215.921875 C 127.15625 215.757812 126.871094 215.453125 126.660156 215.230469 C 126 214.574219 125.460938 213.875 124.921875 213.179688 C 124.390625 212.496094 123.847656 211.800781 123.367188 211.179688 C 122.996094 210.679688 122.703125 210.273438 122.386719 209.84375 C 121.804688 209.105469 121.179688 208.421875 120.652344 207.5 C 120.109375 206.628906 119.527344 205.699219 118.992188 204.84375 C 118.933594 204.75 118.761719 204.484375 118.640625 204.296875 L 118.128906 203.503906 C 117.699219 202.796875 117.15625 202 116.851562 201.417969 C 116.378906 200.46875 116.078125 199.859375 115.695312 199.097656 C 115.511719 198.730469 115.292969 198.300781 115.136719 197.996094 C 114.484375 196.695312 113.625 195.253906 113.097656 193.882812 C 112.824219 193.175781 112.570312 192.523438 112.308594 191.847656 L 112.285156 191.785156 C 112.027344 191.125 111.777344 190.488281 111.535156 189.867188 C 111.15625 188.925781 110.722656 188.007812 110.425781 186.933594 C 110.355469 186.660156 110.265625 186.332031 110.175781 186.011719 C 110.058594 185.59375 109.953125 185.210938 109.828125 184.757812 C 109.550781 183.816406 109.289062 182.914062 109.015625 181.988281 C 108.667969 180.785156 108.3125 179.464844 108.113281 178.140625 C 107.941406 177.148438 107.777344 176.210938 107.601562 175.210938 C 107.523438 174.742188 107.4375 174.230469 107.355469 173.738281 C 106.816406 171.285156 106.773438 168.808594 106.59375 166.285156 C 106.578125 166.136719 106.566406 165.953125 106.550781 165.792969 C 106.1875 163.074219 106.480469 160.273438 106.523438 157.515625 C 106.761719 151.652344 107.832031 145.742188 109.355469 140.035156 C 109.839844 137.921875 110.714844 135.9375 111.378906 133.886719 C 112.023438 131.820312 112.921875 129.863281 113.867188 127.914062 L 115.648438 124.121094 L 117.785156 120.519531 C 118.074219 120.019531 118.382812 119.492188 118.660156 119.007812 C 118.835938 118.699219 119.050781 118.289062 118.875 118.476562 C 118.652344 118.8125 118.441406 119.136719 118.136719 119.601562 C 119.167969 117.71875 119.980469 116.640625 120.789062 115.800781 C 121.375 114.992188 121.890625 114.277344 122.332031 113.667969 C 123.464844 112.230469 124.527344 110.691406 125.832031 109.378906 C 126.515625 108.65625 127.175781 107.953125 127.847656 107.238281 C 128.582031 106.449219 129.253906 105.574219 130.019531 104.816406 C 132.105469 102.953125 134.105469 100.976562 136.273438 99.210938 C 138.542969 97.570312 140.695312 95.753906 143.089844 94.3125 C 144.585938 93.402344 146.144531 92.457031 147.632812 91.554688 C 149.160156 90.566406 150.753906 89.96875 152.269531 89.136719 C 152.632812 88.964844 153.03125 88.773438 153.414062 88.589844 L 155.925781 87.394531 L 158.539062 86.4375 C 158.699219 86.378906 158.882812 86.308594 159.003906 86.261719 C 160.324219 85.679688 161.710938 85.214844 163.132812 84.75 C 163.65625 84.550781 164.273438 84.449219 164.839844 84.289062 C 166.410156 83.890625 167.925781 83.511719 169.535156 83.105469 C 170.570312 82.851562 171.007812 82.6875 171.101562 82.570312 C 171.8125 82.46875 172.449219 82.503906 173.679688 82.316406 C 174.460938 82.164062 175.335938 81.992188 176.210938 81.816406 C 177.207031 81.722656 178.144531 81.644531 179.023438 81.378906 C 179.285156 81.28125 180.046875 81.21875 180.578125 81.1875 C 181.878906 81.246094 182.589844 81.226562 183.847656 81.09375 C 184.160156 81.046875 184.378906 81.015625 184.589844 80.988281 C 185.738281 80.988281 186.726562 80.988281 187.601562 80.988281 C 188.554688 80.929688 189.351562 81.007812 190.25 81.015625 C 190.992188 81.136719 191.835938 81.207031 192.902344 81.207031 C 193.578125 81.207031 194.335938 81.269531 195.074219 81.351562 C 195.464844 81.378906 196.050781 81.425781 196.496094 81.460938 C 198.265625 81.726562 200.042969 81.992188 201.832031 82.261719 L 204.511719 82.695312 L 207.144531 83.398438 C 207.261719 83.421875 207.367188 83.441406 207.511719 83.46875 C 207.585938 83.476562 207.6875 83.488281 207.761719 83.496094 C 208.273438 83.578125 208.875 83.722656 209.449219 83.90625 C 209.660156 83.976562 209.867188 84.046875 210.03125 84.101562 C 211.132812 84.511719 212.539062 84.855469 214.015625 85.457031 C 216.199219 86.285156 218.476562 87.082031 220.601562 87.980469 C 220.863281 88.113281 221.195312 88.285156 221.488281 88.433594 C 222.175781 88.789062 222.175781 88.703125 222.628906 88.921875 C 223.074219 89.171875 223.453125 89.386719 223.90625 89.644531 C 224.324219 89.871094 224.824219 90.113281 225.03125 90.164062 C 225.136719 90.1875 225.144531 90.160156 225.542969 90.363281 C 225.851562 90.539062 226.359375 90.832031 226.394531 90.851562 C 227.105469 91.101562 227.808594 91.652344 228.46875 92.039062 C 228.730469 92.183594 228.96875 92.320312 229.191406 92.445312 C 230.042969 92.917969 230.296875 93.070312 230.996094 93.574219 C 231.34375 93.824219 231.640625 94.03125 232.097656 94.308594 C 233.179688 94.9375 234.203125 95.617188 235.152344 96.433594 C 235.421875 96.648438 235.613281 96.769531 235.417969 96.578125 C 234.523438 95.863281 233.605469 95.144531 232.578125 94.535156 C 232.640625 94.5625 232.660156 94.5625 232.695312 94.582031 C 233.292969 94.953125 233.898438 95.289062 234.351562 95.667969 C 234.621094 95.871094 234.683594 95.917969 234.949219 96.128906 C 236.15625 97.074219 237.273438 97.953125 238.453125 98.878906 C 238.503906 98.921875 238.554688 98.96875 238.628906 99.035156 C 238.164062 98.683594 238.164062 98.683594 237.765625 98.417969 C 238.144531 98.714844 238.472656 98.976562 238.796875 99.230469 C 239.375 99.6875 239.738281 99.9375 240.085938 100.15625 C 240.5 100.457031 241 100.929688 242.023438 101.972656 C 241.519531 101.511719 241.167969 101.183594 240.808594 100.855469 C 241.066406 101.136719 241.339844 101.40625 241.621094 101.664062 C 243.746094 103.664062 245.976562 105.609375 247.835938 107.898438 C 248.746094 108.863281 249.648438 109.914062 250.550781 110.964844 C 250.609375 111.023438 250.691406 111.109375 250.777344 111.191406 C 250.6875 111.015625 250.425781 110.644531 249.765625 109.855469 C 250.941406 111.082031 251.820312 112.339844 252.75 113.613281 C 252.558594 113.457031 252.386719 113.316406 252.210938 113.171875 C 253.785156 115.457031 255.390625 117.34375 256.675781 119.78125 C 257.339844 120.890625 257.960938 121.929688 258.488281 122.808594 C 258.722656 123.230469 258.953125 123.648438 259.070312 123.863281 C 259.980469 125.398438 260.632812 127.105469 261.417969 128.746094 C 261.558594 129.039062 261.707031 129.355469 261.988281 129.941406 C 261.652344 129.1875 261.46875 128.773438 261.292969 128.375 C 261.59375 128.957031 261.875 129.492188 262.175781 130.074219 C 262.363281 130.476562 262.566406 130.929688 262.757812 131.347656 C 262.9375 131.78125 263.015625 132.214844 263.144531 132.625 C 263.460938 133.523438 263.773438 134.40625 264.007812 135.066406 C 264.199219 135.613281 264.386719 136.164062 264.464844 136.476562 C 264.746094 137.269531 264.902344 137.726562 265.351562 139.015625 C 265.617188 139.972656 265.777344 140.773438 265.941406 141.523438 C 266.003906 141.835938 266.085938 142.242188 266.160156 142.589844 C 266.382812 143.5 266.59375 144.367188 266.808594 145.234375 L 266.800781 145.199219 C 267.066406 146.273438 267.316406 147.566406 267.445312 148.714844 C 267.601562 149.78125 267.777344 150.976562 267.914062 151.910156 C 268.070312 153.117188 268.328125 154.328125 268.375 155.605469 C 268.371094 155.773438 268.363281 155.917969 268.359375 156.0625 C 268.398438 157.015625 268.433594 157.796875 268.46875 158.5625 C 268.46875 158.746094 268.464844 158.898438 268.464844 159.066406 C 268.492188 159.65625 268.511719 160.136719 268.546875 160.917969 C 268.5625 161.1875 268.570312 161.363281 268.582031 161.488281 C 268.621094 162.535156 268.648438 163.472656 268.5625 164.320312 C 268.460938 165.714844 268.386719 166.691406 268.304688 167.808594 C 268.296875 167.957031 268.277344 168.082031 268.277344 168.039062 C 268.277344 167.992188 268.289062 167.742188 268.296875 167.554688 C 268.347656 166.742188 268.382812 166.195312 268.425781 165.574219 L 268.5625 163.414062 C 268.375 166.265625 268.242188 168.261719 268.101562 170.371094 C 268.078125 170.757812 268.042969 171.332031 268.03125 171.503906 C 267.9375 172.085938 267.8125 172.847656 267.6875 173.628906 C 267.667969 173.835938 267.601562 174.296875 267.441406 175.203125 C 267.304688 176.023438 267.179688 176.789062 267.046875 177.582031 C 266.96875 178.0625 266.921875 178.335938 266.84375 178.839844 C 266.808594 178.964844 266.785156 179.058594 266.75 179.179688 C 266.011719 182 265.289062 184.859375 264.414062 187.703125 C 264.585938 187.296875 264.703125 186.957031 264.867188 186.308594 C 264.699219 187.011719 264.546875 187.410156 264.382812 187.824219 C 264.21875 188.257812 264.050781 188.707031 263.90625 189.085938 C 263.746094 189.492188 263.617188 189.816406 263.496094 190.125 C 262.839844 191.863281 262.835938 191.882812 262.148438 193.714844 C 262.035156 194.019531 261.828125 194.566406 261.675781 194.835938 C 261.5625 195.0625 261.554688 195.074219 261.25 195.695312 C 260.828125 196.539062 260.511719 197.175781 260.140625 197.925781 C 259.800781 198.621094 259.5625 199.105469 259.269531 199.707031 C 259.199219 199.855469 259.117188 200.027344 259.066406 200.128906 C 258.828125 200.613281 258.722656 200.816406 258.625 201.015625 C 258.167969 201.910156 257.582031 202.726562 257.066406 203.597656 C 256.605469 204.335938 256.261719 204.894531 255.652344 205.875 C 255.191406 206.625 254.804688 207.253906 254.574219 207.632812 C 254.449219 207.839844 254.363281 207.992188 254.191406 208.207031 C 253.726562 208.8125 253.316406 209.34375 252.972656 209.792969 C 252.511719 210.40625 251.941406 211.15625 251.8125 211.328125 C 251.457031 211.792969 251.078125 212.296875 250.355469 213.246094 C 249.820312 214.015625 249.175781 214.683594 248.640625 215.25 C 248.164062 215.765625 247.519531 216.464844 246.949219 217.085938 C 246.566406 217.503906 246.15625 217.949219 245.640625 218.511719 C 245.382812 218.792969 245.246094 218.941406 244.652344 219.585938 C 243.796875 220.40625 243.28125 220.828125 242.824219 221.246094 C 242.035156 221.957031 241.074219 222.820312 240.179688 223.628906 C 239.265625 224.507812 238.226562 225.332031 236.742188 226.382812 C 235.257812 227.476562 233.84375 228.511719 232.449219 229.539062 C 231.976562 229.820312 231.992188 229.8125 231.152344 230.316406 C 230.582031 230.660156 230.199219 230.890625 229.730469 231.171875 C 229.1875 231.5 228.691406 231.796875 228.140625 232.128906 C 228.195312 232.097656 228.609375 231.847656 228.257812 232.058594 C 227.980469 232.226562 227.785156 232.347656 227.519531 232.503906 C 226.9375 232.855469 226.722656 232.984375 226.34375 233.214844 C 226.1875 233.304688 226.066406 233.390625 225.941406 233.445312 C 224.523438 234.125 223.253906 234.730469 222.003906 235.324219 C 220.878906 235.863281 219.980469 236.289062 219.734375 236.40625 C 219.675781 236.433594 219.335938 236.59375 219.03125 236.742188 C 218.578125 236.902344 218.484375 236.9375 217.371094 237.34375 C 216.21875 237.761719 215.917969 237.871094 215.621094 237.980469 C 214.257812 238.425781 213.109375 239 210.742188 239.648438 C 209.648438 239.925781 209.269531 240.023438 208.617188 240.1875 C 208.222656 240.289062 207.847656 240.386719 207.4375 240.488281 C 206.335938 240.773438 205.171875 241.070312 204.105469 241.34375 C 202.882812 241.527344 201.664062 241.714844 200.535156 241.882812 C 199.914062 241.980469 199.882812 241.984375 199.609375 242.023438 C 199.355469 242.0625 199.125 242.097656 198.960938 242.125 C 198.058594 242.261719 197.339844 242.371094 196.433594 242.507812 C 194.835938 242.640625 194.617188 242.613281 193.808594 242.667969 C 192.445312 242.734375 191.148438 242.800781 189.714844 242.871094 C 189.308594 242.890625 188.941406 242.910156 188.757812 242.921875 C 188.496094 242.933594 188.253906 242.945312 188.011719 242.957031 C 191.519531 242.761719 193.714844 242.710938 196.566406 242.484375 " fill-opacity="1" fill-rule="nonzero"/></g><path fill="#eb7db5" d="M 124.425781 211.804688 C 123.402344 210.5 122.722656 209.617188 121.953125 208.535156 C 122.9375 209.78125 123.558594 210.625 124.425781 211.804688 " fill-opacity="1" fill-rule="nonzero"/><path fill="#eb7db5" d="M 128.640625 216.652344 C 129.625 217.71875 130.238281 218.382812 131.214844 219.445312 C 130.230469 218.375 129.617188 217.707031 128.640625 216.652344 " fill-opacity="1" fill-rule="nonzero"/><path fill="#eb7db5" d="M 127.109375 215.136719 L 128.285156 216.433594 L 128.199219 216.359375 L 127.046875 215.101562 L 127.109375 215.136719 " fill-opacity="1" fill-rule="nonzero"/><path fill="#eb7db5" d="M 225.484375 94.296875 L 224.25 93.710938 L 224.257812 93.695312 L 225.449219 94.253906 L 225.492188 94.28125 L 225.484375 94.296875 " fill-opacity="1" fill-rule="nonzero"/><path fill="#eb7db5" d="M 225.492188 94.28125 L 225.449219 94.253906 Z M 225.492188 94.28125 " fill-opacity="1" fill-rule="nonzero"/><path fill="#eb7db5" d="M 126.738281 214.617188 C 126.789062 214.671875 126.847656 214.738281 126.875 214.769531 C 126.890625 214.789062 126.847656 214.746094 126.828125 214.730469 C 126.78125 214.679688 126.71875 214.609375 126.691406 214.578125 C 126.675781 214.558594 126.722656 214.601562 126.738281 214.617188 " fill-opacity="1" fill-rule="nonzero"/><path fill="#eb7db5" d="M 125.691406 213.335938 L 125.574219 213.179688 L 125.675781 213.304688 Z M 125.691406 213.335938 " fill-opacity="1" fill-rule="nonzero"/><g fill="#ee4a9d" fill-opacity="1"><g transform="translate(86.15006, 271.660063)"><g><path d="M 18.15625 0 L 7.578125 -27.859375 L 7.40625 -27.859375 C 7.46875 -27.273438 7.519531 -26.554688 7.5625 -25.703125 C 7.601562 -24.859375 7.632812 -23.9375 7.65625 -22.9375 C 7.6875 -21.9375 7.703125 -20.921875 7.703125 -19.890625 L 7.703125 0 L 4.3125 0 L 4.3125 -31.484375 L 9.734375 -31.484375 L 19.703125 -5.296875 L 19.84375 -5.296875 L 29.96875 -31.484375 L 35.359375 -31.484375 L 35.359375 0 L 31.734375 0 L 31.734375 -20.15625 C 31.734375 -21.082031 31.75 -22.015625 31.78125 -22.953125 C 31.8125 -23.898438 31.847656 -24.789062 31.890625 -25.625 C 31.929688 -26.46875 31.972656 -27.195312 32.015625 -27.8125 L 31.84375 -27.8125 L 21.140625 0 Z M 18.15625 0 "/></g></g></g><g fill="#ee4a9d" fill-opacity="1"><g transform="translate(125.796796, 271.660063)"><g><path d="M 31.609375 -15.78125 C 31.609375 -13.351562 31.296875 -11.144531 30.671875 -9.15625 C 30.054688 -7.164062 29.140625 -5.457031 27.921875 -4.03125 C 26.710938 -2.601562 25.210938 -1.5 23.421875 -0.71875 C 21.628906 0.0507812 19.550781 0.4375 17.1875 0.4375 C 14.738281 0.4375 12.609375 0.0507812 10.796875 -0.71875 C 8.984375 -1.5 7.476562 -2.609375 6.28125 -4.046875 C 5.082031 -5.484375 4.179688 -7.195312 3.578125 -9.1875 C 2.984375 -11.1875 2.6875 -13.398438 2.6875 -15.828125 C 2.6875 -19.035156 3.21875 -21.851562 4.28125 -24.28125 C 5.34375 -26.707031 6.953125 -28.59375 9.109375 -29.9375 C 11.273438 -31.289062 13.988281 -31.96875 17.25 -31.96875 C 20.363281 -31.96875 22.984375 -31.300781 25.109375 -29.96875 C 27.242188 -28.632812 28.859375 -26.757812 29.953125 -24.34375 C 31.054688 -21.925781 31.609375 -19.070312 31.609375 -15.78125 Z M 6.546875 -15.78125 C 6.546875 -13.113281 6.925781 -10.800781 7.6875 -8.84375 C 8.445312 -6.894531 9.613281 -5.390625 11.1875 -4.328125 C 12.757812 -3.265625 14.757812 -2.734375 17.1875 -2.734375 C 19.625 -2.734375 21.617188 -3.265625 23.171875 -4.328125 C 24.734375 -5.390625 25.882812 -6.894531 26.625 -8.84375 C 27.375 -10.800781 27.75 -13.113281 27.75 -15.78125 C 27.75 -19.84375 26.898438 -23.019531 25.203125 -25.3125 C 23.503906 -27.601562 20.851562 -28.75 17.25 -28.75 C 14.800781 -28.75 12.785156 -28.222656 11.203125 -27.171875 C 9.628906 -26.117188 8.457031 -24.628906 7.6875 -22.703125 C 6.925781 -20.773438 6.546875 -18.46875 6.546875 -15.78125 Z M 6.546875 -15.78125 "/></g></g></g><g fill="#ee4a9d" fill-opacity="1"><g transform="translate(160.084128, 271.660063)"><g><path d="M 18.15625 0 L 7.578125 -27.859375 L 7.40625 -27.859375 C 7.46875 -27.273438 7.519531 -26.554688 7.5625 -25.703125 C 7.601562 -24.859375 7.632812 -23.9375 7.65625 -22.9375 C 7.6875 -21.9375 7.703125 -20.921875 7.703125 -19.890625 L 7.703125 0 L 4.3125 0 L 4.3125 -31.484375 L 9.734375 -31.484375 L 19.703125 -5.296875 L 19.84375 -5.296875 L 29.96875 -31.484375 L 35.359375 -31.484375 L 35.359375 0 L 31.734375 0 L 31.734375 -20.15625 C 31.734375 -21.082031 31.75 -22.015625 31.78125 -22.953125 C 31.8125 -23.898438 31.847656 -24.789062 31.890625 -25.625 C 31.929688 -26.46875 31.972656 -27.195312 32.015625 -27.8125 L 31.84375 -27.8125 L 21.140625 0 Z M 18.15625 0 "/></g></g></g><g fill="#ee4a9d" fill-opacity="1"><g transform="translate(199.730864, 271.660063)"><g/></g></g><g fill="#ee4a9d" fill-opacity="1"><g transform="translate(211.181495, 271.660063)"><g><path d="M 28.125 -31.484375 L 28.125 -11.109375 C 28.125 -8.878906 27.671875 -6.894531 26.765625 -5.15625 C 25.867188 -3.425781 24.515625 -2.0625 22.703125 -1.0625 C 20.898438 -0.0625 18.632812 0.4375 15.90625 0.4375 C 12.019531 0.4375 9.0625 -0.617188 7.03125 -2.734375 C 5 -4.847656 3.984375 -7.671875 3.984375 -11.203125 L 3.984375 -31.484375 L 7.671875 -31.484375 L 7.671875 -11.09375 C 7.671875 -8.414062 8.375 -6.351562 9.78125 -4.90625 C 11.195312 -3.457031 13.3125 -2.734375 16.125 -2.734375 C 18.050781 -2.734375 19.625 -3.082031 20.84375 -3.78125 C 22.070312 -4.476562 22.984375 -5.453125 23.578125 -6.703125 C 24.179688 -7.960938 24.484375 -9.414062 24.484375 -11.0625 L 24.484375 -31.484375 Z M 28.125 -31.484375 "/></g></g></g><g fill="#ee4a9d" fill-opacity="1"><g transform="translate(243.316453, 271.660063)"><g><path d="M 28.921875 0 L 24.6875 0 L 7.53125 -26.4375 L 7.359375 -26.4375 C 7.398438 -25.738281 7.445312 -24.9375 7.5 -24.03125 C 7.5625 -23.132812 7.609375 -22.179688 7.640625 -21.171875 C 7.679688 -20.160156 7.703125 -19.128906 7.703125 -18.078125 L 7.703125 0 L 4.3125 0 L 4.3125 -31.484375 L 8.5 -31.484375 L 25.59375 -5.125 L 25.75 -5.125 C 25.71875 -5.625 25.679688 -6.335938 25.640625 -7.265625 C 25.597656 -8.191406 25.554688 -9.1875 25.515625 -10.25 C 25.484375 -11.320312 25.46875 -12.316406 25.46875 -13.234375 L 25.46875 -31.484375 L 28.921875 -31.484375 Z M 28.921875 0 "/></g></g></g><g fill="#ee4a9d" fill-opacity="1"><g transform="translate(276.506065, 271.660063)"><g><path d="M 4.3125 0 L 4.3125 -31.484375 L 7.96875 -31.484375 L 7.96875 0 Z M 4.3125 0 "/></g></g></g><g fill="#fe8fc7" fill-opacity="1"><g transform="translate(124.408202, 291.920689)"><g><path d="M 4.15625 0 L 1.734375 -6.375 L 1.703125 -6.375 C 1.710938 -6.238281 1.722656 -6.070312 1.734375 -5.875 C 1.742188 -5.6875 1.75 -5.476562 1.75 -5.25 C 1.757812 -5.019531 1.765625 -4.785156 1.765625 -4.546875 L 1.765625 0 L 0.984375 0 L 0.984375 -7.203125 L 2.234375 -7.203125 L 4.515625 -1.21875 L 4.546875 -1.21875 L 6.859375 -7.203125 L 8.09375 -7.203125 L 8.09375 0 L 7.265625 0 L 7.265625 -4.609375 C 7.265625 -4.828125 7.265625 -5.039062 7.265625 -5.25 C 7.273438 -5.46875 7.285156 -5.671875 7.296875 -5.859375 C 7.304688 -6.054688 7.316406 -6.226562 7.328125 -6.375 L 7.296875 -6.375 L 4.84375 0 Z M 4.15625 0 "/></g></g></g><g fill="#fe8fc7" fill-opacity="1"><g transform="translate(134.820039, 291.920689)"><g><path d="M 7.234375 -3.609375 C 7.234375 -3.054688 7.160156 -2.550781 7.015625 -2.09375 C 6.878906 -1.644531 6.671875 -1.253906 6.390625 -0.921875 C 6.117188 -0.597656 5.773438 -0.347656 5.359375 -0.171875 C 4.953125 0.00390625 4.476562 0.09375 3.9375 0.09375 C 3.375 0.09375 2.882812 0.00390625 2.46875 -0.171875 C 2.050781 -0.347656 1.707031 -0.597656 1.4375 -0.921875 C 1.164062 -1.253906 0.957031 -1.648438 0.8125 -2.109375 C 0.675781 -2.566406 0.609375 -3.070312 0.609375 -3.625 C 0.609375 -4.351562 0.726562 -4.992188 0.96875 -5.546875 C 1.21875 -6.109375 1.585938 -6.539062 2.078125 -6.84375 C 2.578125 -7.15625 3.203125 -7.3125 3.953125 -7.3125 C 4.660156 -7.3125 5.257812 -7.160156 5.75 -6.859375 C 6.238281 -6.554688 6.609375 -6.125 6.859375 -5.5625 C 7.109375 -5.007812 7.234375 -4.359375 7.234375 -3.609375 Z M 1.5 -3.609375 C 1.5 -3.003906 1.582031 -2.476562 1.75 -2.03125 C 1.925781 -1.582031 2.191406 -1.234375 2.546875 -0.984375 C 2.910156 -0.742188 3.375 -0.625 3.9375 -0.625 C 4.488281 -0.625 4.941406 -0.742188 5.296875 -0.984375 C 5.660156 -1.234375 5.925781 -1.582031 6.09375 -2.03125 C 6.269531 -2.476562 6.359375 -3.003906 6.359375 -3.609375 C 6.359375 -4.535156 6.160156 -5.257812 5.765625 -5.78125 C 5.378906 -6.3125 4.773438 -6.578125 3.953125 -6.578125 C 3.390625 -6.578125 2.925781 -6.457031 2.5625 -6.21875 C 2.207031 -5.976562 1.941406 -5.632812 1.765625 -5.1875 C 1.585938 -4.75 1.5 -4.222656 1.5 -3.609375 Z M 1.5 -3.609375 "/></g></g></g><g fill="#fe8fc7" fill-opacity="1"><g transform="translate(144.004679, 291.920689)"><g><path d="M 4.15625 0 L 1.734375 -6.375 L 1.703125 -6.375 C 1.710938 -6.238281 1.722656 -6.070312 1.734375 -5.875 C 1.742188 -5.6875 1.75 -5.476562 1.75 -5.25 C 1.757812 -5.019531 1.765625 -4.785156 1.765625 -4.546875 L 1.765625 0 L 0.984375 0 L 0.984375 -7.203125 L 2.234375 -7.203125 L 4.515625 -1.21875 L 4.546875 -1.21875 L 6.859375 -7.203125 L 8.09375 -7.203125 L 8.09375 0 L 7.265625 0 L 7.265625 -4.609375 C 7.265625 -4.828125 7.265625 -5.039062 7.265625 -5.25 C 7.273438 -5.46875 7.285156 -5.671875 7.296875 -5.859375 C 7.304688 -6.054688 7.316406 -6.226562 7.328125 -6.375 L 7.296875 -6.375 L 4.84375 0 Z M 4.15625 0 "/></g></g></g><g fill="#fe8fc7" fill-opacity="1"><g transform="translate(154.416515, 291.920689)"><g/></g></g><g fill="#fe8fc7" fill-opacity="1"><g transform="translate(158.372015, 291.920689)"><g><path d="M 5.5 0 L 4.625 -2.28125 L 1.734375 -2.28125 L 0.84375 0 L 0 0 L 2.8125 -7.234375 L 3.578125 -7.234375 L 6.375 0 Z M 4.359375 -3.03125 L 3.53125 -5.296875 C 3.507812 -5.359375 3.472656 -5.457031 3.421875 -5.59375 C 3.378906 -5.726562 3.332031 -5.867188 3.28125 -6.015625 C 3.238281 -6.160156 3.203125 -6.273438 3.171875 -6.359375 C 3.140625 -6.222656 3.101562 -6.085938 3.0625 -5.953125 C 3.03125 -5.828125 2.992188 -5.707031 2.953125 -5.59375 C 2.921875 -5.476562 2.894531 -5.378906 2.875 -5.296875 L 2.015625 -3.03125 Z M 4.359375 -3.03125 "/></g></g></g><g fill="#fe8fc7" fill-opacity="1"><g transform="translate(166.087962, 291.920689)"><g><path d="M 6.625 0 L 5.65625 0 L 1.71875 -6.046875 L 1.6875 -6.046875 C 1.695312 -5.890625 1.707031 -5.707031 1.71875 -5.5 C 1.726562 -5.289062 1.738281 -5.070312 1.75 -4.84375 C 1.757812 -4.613281 1.765625 -4.378906 1.765625 -4.140625 L 1.765625 0 L 0.984375 0 L 0.984375 -7.203125 L 1.953125 -7.203125 L 5.859375 -1.171875 L 5.890625 -1.171875 C 5.890625 -1.285156 5.882812 -1.445312 5.875 -1.65625 C 5.863281 -1.875 5.851562 -2.101562 5.84375 -2.34375 C 5.832031 -2.59375 5.828125 -2.820312 5.828125 -3.03125 L 5.828125 -7.203125 L 6.625 -7.203125 Z M 6.625 0 "/></g></g></g><g fill="#fe8fc7" fill-opacity="1"><g transform="translate(175.02125, 291.920689)"><g><path d="M 6.703125 -3.671875 C 6.703125 -2.859375 6.554688 -2.179688 6.265625 -1.640625 C 5.972656 -1.097656 5.546875 -0.6875 4.984375 -0.40625 C 4.421875 -0.132812 3.738281 0 2.9375 0 L 0.984375 0 L 0.984375 -7.203125 L 3.15625 -7.203125 C 3.894531 -7.203125 4.523438 -7.066406 5.046875 -6.796875 C 5.578125 -6.535156 5.984375 -6.140625 6.265625 -5.609375 C 6.554688 -5.085938 6.703125 -4.441406 6.703125 -3.671875 Z M 5.828125 -3.640625 C 5.828125 -4.285156 5.71875 -4.816406 5.5 -5.234375 C 5.289062 -5.660156 4.976562 -5.972656 4.5625 -6.171875 C 4.144531 -6.378906 3.632812 -6.484375 3.03125 -6.484375 L 1.828125 -6.484375 L 1.828125 -0.71875 L 2.84375 -0.71875 C 3.832031 -0.71875 4.578125 -0.960938 5.078125 -1.453125 C 5.578125 -1.941406 5.828125 -2.671875 5.828125 -3.640625 Z M 5.828125 -3.640625 "/></g></g></g><g fill="#fe8fc7" fill-opacity="1"><g transform="translate(183.678541, 291.920689)"><g/></g></g><g fill="#fe8fc7" fill-opacity="1"><g transform="translate(187.634041, 291.920689)"><g><path d="M 0.984375 -7.203125 L 3.03125 -7.203125 C 3.925781 -7.203125 4.597656 -7.066406 5.046875 -6.796875 C 5.503906 -6.523438 5.734375 -6.066406 5.734375 -5.421875 C 5.734375 -5.140625 5.679688 -4.890625 5.578125 -4.671875 C 5.472656 -4.453125 5.316406 -4.269531 5.109375 -4.125 C 4.910156 -3.976562 4.660156 -3.878906 4.359375 -3.828125 L 4.359375 -3.78125 C 4.671875 -3.726562 4.945312 -3.632812 5.1875 -3.5 C 5.4375 -3.375 5.628906 -3.191406 5.765625 -2.953125 C 5.898438 -2.710938 5.96875 -2.410156 5.96875 -2.046875 C 5.96875 -1.609375 5.863281 -1.234375 5.65625 -0.921875 C 5.457031 -0.617188 5.171875 -0.390625 4.796875 -0.234375 C 4.421875 -0.078125 3.976562 0 3.46875 0 L 0.984375 0 Z M 1.828125 -4.109375 L 3.203125 -4.109375 C 3.828125 -4.109375 4.257812 -4.210938 4.5 -4.421875 C 4.75 -4.628906 4.875 -4.929688 4.875 -5.328125 C 4.875 -5.742188 4.726562 -6.039062 4.4375 -6.21875 C 4.144531 -6.394531 3.6875 -6.484375 3.0625 -6.484375 L 1.828125 -6.484375 Z M 1.828125 -3.40625 L 1.828125 -0.71875 L 3.328125 -0.71875 C 3.960938 -0.71875 4.410156 -0.84375 4.671875 -1.09375 C 4.941406 -1.34375 5.078125 -1.679688 5.078125 -2.109375 C 5.078125 -2.378906 5.015625 -2.609375 4.890625 -2.796875 C 4.773438 -2.992188 4.582031 -3.144531 4.3125 -3.25 C 4.050781 -3.351562 3.695312 -3.40625 3.25 -3.40625 Z M 1.828125 -3.40625 "/></g></g></g><g fill="#fe8fc7" fill-opacity="1"><g transform="translate(195.487982, 291.920689)"><g><path d="M 5.5 0 L 4.625 -2.28125 L 1.734375 -2.28125 L 0.84375 0 L 0 0 L 2.8125 -7.234375 L 3.578125 -7.234375 L 6.375 0 Z M 4.359375 -3.03125 L 3.53125 -5.296875 C 3.507812 -5.359375 3.472656 -5.457031 3.421875 -5.59375 C 3.378906 -5.726562 3.332031 -5.867188 3.28125 -6.015625 C 3.238281 -6.160156 3.203125 -6.273438 3.171875 -6.359375 C 3.140625 -6.222656 3.101562 -6.085938 3.0625 -5.953125 C 3.03125 -5.828125 2.992188 -5.707031 2.953125 -5.59375 C 2.921875 -5.476562 2.894531 -5.378906 2.875 -5.296875 L 2.015625 -3.03125 Z M 4.359375 -3.03125 "/></g></g></g><g fill="#fe8fc7" fill-opacity="1"><g transform="translate(203.20393, 291.920689)"><g><path d="M 0.984375 -7.203125 L 3.03125 -7.203125 C 3.925781 -7.203125 4.597656 -7.066406 5.046875 -6.796875 C 5.503906 -6.523438 5.734375 -6.066406 5.734375 -5.421875 C 5.734375 -5.140625 5.679688 -4.890625 5.578125 -4.671875 C 5.472656 -4.453125 5.316406 -4.269531 5.109375 -4.125 C 4.910156 -3.976562 4.660156 -3.878906 4.359375 -3.828125 L 4.359375 -3.78125 C 4.671875 -3.726562 4.945312 -3.632812 5.1875 -3.5 C 5.4375 -3.375 5.628906 -3.191406 5.765625 -2.953125 C 5.898438 -2.710938 5.96875 -2.410156 5.96875 -2.046875 C 5.96875 -1.609375 5.863281 -1.234375 5.65625 -0.921875 C 5.457031 -0.617188 5.171875 -0.390625 4.796875 -0.234375 C 4.421875 -0.078125 3.976562 0 3.46875 0 L 0.984375 0 Z M 1.828125 -4.109375 L 3.203125 -4.109375 C 3.828125 -4.109375 4.257812 -4.210938 4.5 -4.421875 C 4.75 -4.628906 4.875 -4.929688 4.875 -5.328125 C 4.875 -5.742188 4.726562 -6.039062 4.4375 -6.21875 C 4.144531 -6.394531 3.6875 -6.484375 3.0625 -6.484375 L 1.828125 -6.484375 Z M 1.828125 -3.40625 L 1.828125 -0.71875 L 3.328125 -0.71875 C 3.960938 -0.71875 4.410156 -0.84375 4.671875 -1.09375 C 4.941406 -1.34375 5.078125 -1.679688 5.078125 -2.109375 C 5.078125 -2.378906 5.015625 -2.609375 4.890625 -2.796875 C 4.773438 -2.992188 4.582031 -3.144531 4.3125 -3.25 C 4.050781 -3.351562 3.695312 -3.40625 3.25 -3.40625 Z M 1.828125 -3.40625 "/></g></g></g><g fill="#fe8fc7" fill-opacity="1"><g transform="translate(211.057875, 291.920689)"><g><path d="M 2.828125 -3.59375 L 4.734375 -7.203125 L 5.640625 -7.203125 L 3.25 -2.796875 L 3.25 0 L 2.40625 0 L 2.40625 -2.75 L 0 -7.203125 L 0.921875 -7.203125 Z M 2.828125 -3.59375 "/></g></g></g><g fill="#fe8fc7" fill-opacity="1"><g transform="translate(218.034547, 291.920689)"><g/></g></g><g fill="#fe8fc7" fill-opacity="1"><g transform="translate(221.990047, 291.920689)"><g><path d="M 4.0625 -6.5625 C 3.664062 -6.5625 3.304688 -6.492188 2.984375 -6.359375 C 2.671875 -6.222656 2.40625 -6.023438 2.1875 -5.765625 C 1.96875 -5.515625 1.796875 -5.207031 1.671875 -4.84375 C 1.554688 -4.476562 1.5 -4.066406 1.5 -3.609375 C 1.5 -3.003906 1.59375 -2.476562 1.78125 -2.03125 C 1.96875 -1.582031 2.25 -1.238281 2.625 -1 C 3 -0.757812 3.472656 -0.640625 4.046875 -0.640625 C 4.367188 -0.640625 4.671875 -0.664062 4.953125 -0.71875 C 5.234375 -0.769531 5.507812 -0.835938 5.78125 -0.921875 L 5.78125 -0.1875 C 5.519531 -0.09375 5.242188 -0.0234375 4.953125 0.015625 C 4.660156 0.0664062 4.316406 0.09375 3.921875 0.09375 C 3.191406 0.09375 2.578125 -0.0546875 2.078125 -0.359375 C 1.585938 -0.660156 1.21875 -1.085938 0.96875 -1.640625 C 0.726562 -2.203125 0.609375 -2.859375 0.609375 -3.609375 C 0.609375 -4.160156 0.6875 -4.660156 0.84375 -5.109375 C 1 -5.554688 1.222656 -5.941406 1.515625 -6.265625 C 1.804688 -6.597656 2.164062 -6.851562 2.59375 -7.03125 C 3.03125 -7.21875 3.523438 -7.3125 4.078125 -7.3125 C 4.441406 -7.3125 4.789062 -7.273438 5.125 -7.203125 C 5.46875 -7.128906 5.773438 -7.023438 6.046875 -6.890625 L 5.71875 -6.1875 C 5.488281 -6.289062 5.234375 -6.378906 4.953125 -6.453125 C 4.679688 -6.523438 4.382812 -6.5625 4.0625 -6.5625 Z M 4.0625 -6.5625 "/></g></g></g><g fill="#fe8fc7" fill-opacity="1"><g transform="translate(229.681352, 291.920689)"><g><path d="M 5.5 0 L 4.625 -2.28125 L 1.734375 -2.28125 L 0.84375 0 L 0 0 L 2.8125 -7.234375 L 3.578125 -7.234375 L 6.375 0 Z M 4.359375 -3.03125 L 3.53125 -5.296875 C 3.507812 -5.359375 3.472656 -5.457031 3.421875 -5.59375 C 3.378906 -5.726562 3.332031 -5.867188 3.28125 -6.015625 C 3.238281 -6.160156 3.203125 -6.273438 3.171875 -6.359375 C 3.140625 -6.222656 3.101562 -6.085938 3.0625 -5.953125 C 3.03125 -5.828125 2.992188 -5.707031 2.953125 -5.59375 C 2.921875 -5.476562 2.894531 -5.378906 2.875 -5.296875 L 2.015625 -3.03125 Z M 4.359375 -3.03125 "/></g></g></g><g fill="#fe8fc7" fill-opacity="1"><g transform="translate(237.397299, 291.920689)"><g><path d="M 2.9375 -7.203125 C 3.519531 -7.203125 4.003906 -7.128906 4.390625 -6.984375 C 4.785156 -6.835938 5.078125 -6.613281 5.265625 -6.3125 C 5.453125 -6.019531 5.546875 -5.640625 5.546875 -5.171875 C 5.546875 -4.796875 5.476562 -4.476562 5.34375 -4.21875 C 5.207031 -3.96875 5.023438 -3.757812 4.796875 -3.59375 C 4.578125 -3.4375 4.335938 -3.316406 4.078125 -3.234375 L 6.0625 0 L 5.09375 0 L 3.328125 -3 L 1.828125 -3 L 1.828125 0 L 0.984375 0 L 0.984375 -7.203125 Z M 2.890625 -6.484375 L 1.828125 -6.484375 L 1.828125 -3.71875 L 2.96875 -3.71875 C 3.550781 -3.71875 3.984375 -3.835938 4.265625 -4.078125 C 4.546875 -4.316406 4.6875 -4.671875 4.6875 -5.140625 C 4.6875 -5.628906 4.535156 -5.972656 4.234375 -6.171875 C 3.941406 -6.378906 3.492188 -6.484375 2.890625 -6.484375 Z M 2.890625 -6.484375 "/></g></g></g><g fill="#fe8fc7" fill-opacity="1"><g transform="translate(244.960463, 291.920689)"><g><path d="M 5 0 L 0.984375 0 L 0.984375 -7.203125 L 5 -7.203125 L 5 -6.46875 L 1.828125 -6.46875 L 1.828125 -4.140625 L 4.8125 -4.140625 L 4.8125 -3.40625 L 1.828125 -3.40625 L 1.828125 -0.734375 L 5 -0.734375 Z M 5 0 "/></g></g></g></svg>